<svg xmlns="http://www.w3.org/2000/svg" viewBox="0 0 820 220"><g transform="translate(20 20)"><rect width="180" height="180" rx="38" fill="#26070e"/><path d="M40 49c0-24 16-34 50-34h47v31H93c-15 0-21 6-21 18s9 18 28 18h37v31H98c-18 0-26 6-26 18s8 18 25 18h40v31H88c-33 0-48-14-48-43 0-19 8-31 22-39-14-8-22-22-22-40z" fill="#fff"/><circle cx="145" cy="145" r="10" fill="#fff"/></g><text x="235" y="106" font-family="Segoe UI,Arial" font-size="76" font-weight="800" fill="#26070e">Escolhaí</text><text x="240" y="153" font-family="Segoe UI,Arial" font-size="23" font-weight="600" fill="#68172c">Você escolhe, a gente encurta o caminho.</text></svg>